<svg xmlns="http://www.w3.org/2000/svg" fill="none" viewBox="0 0 24 24"><path fill="#03EAB3" d="M0 6.4c0-2.24 0-3.36.436-4.216A4 4 0 0 1 2.184.436C3.04 0 4.16 0 6.4 0h11.2c2.24 0 3.36 0 4.216.436a4 4 0 0 1 1.748 1.748C24 3.04 24 4.16 24 6.4v11.2c0 2.24 0 3.36-.436 4.216a4 4 0 0 1-1.748 1.748C20.96 24 19.84 24 17.6 24H6.4c-2.24 0-3.36 0-4.216-.436a4 4 0 0 1-1.748-1.748C0 20.96 0 19.84 0 17.6V6.4Z"/><path fill="#181818" d="M14.097 5.04H7.68a.812.812 0 0 0-.812.812V15.95c0 .449.364.812.812.812h4.085V15.24H8.39V6.562h5.706c.756 0 1.37.614 1.37 1.37v5.938a1.37 1.37 0 0 1-1.37 1.37h-1.218a.203.203 0 0 0-.203.203v1.116c0 .112.09.203.203.203h1.218a2.892 2.892 0 0 0 2.892-2.892V7.933a2.892 2.892 0 0 0-2.892-2.893Z"/><path fill="#fff" d="m10.608 19.75-3.133-2.403a1.624 1.624 0 0 1-.635-1.289V5.854a.812.812 0 0 1 1.306-.645l3.133 2.404c.4.308.636.784.636 1.289v10.205a.812.812 0 0 1-1.307.644Z"/></svg>